<svg class="menu-svg" xmlns="http://www.w3.org/2000/svg" width="20" height="20" fill="none">
  <path fill="currentColor" d="M10 20a10 10 0 1 0 0-20 10 10 0 0 0 0 20Z"/>
  <path fill="#CED5E0" d="M5.7 9.3 5.2 9l3.2-4.2 3.2 3 3-2.3.4.5-3.5 2.7-3-3-2.8 3.7Z"/>
  <path fill="#2B3B4E" d="M1.7 15.6a10 10 0 0 0 16.6 0H1.7Z"/>
  <path fill="#fff" d="M15.6 15.3h-2V8h2.1v7.2Zm-3.1 0h-2V10h2.1v5.2Zm-3.1 0h-2V7.6h2.1v7.6Zm-3.1 0h-2v-3.9h2.1v3.8Z"/>
  <path fill="#CED5E0" d="M17.1 15H2.9v.6h14.2V15Z"/>
  <path fill="#E6E9EE" d="M14.8 6.8a1.2 1.2 0 1 0 0-2.3 1.2 1.2 0 0 0 0 2.3Z"/>
  <path fill="#fff" d="M14.8 6.3a.7.7 0 1 0 0-1.3.7.7 0 0 0 0 1.3Z"/>
  <path fill="#E6E9EE" d="M11.6 9.2a1.2 1.2 0 1 0 0-2.3 1.2 1.2 0 0 0 0 2.3Z"/>
  <path fill="#fff" d="M11.6 8.8a.7.7 0 1 0 0-1.4.7.7 0 0 0 0 1.4Z"/>
  <path fill="#E6E9EE" d="M8.4 6.4a1.2 1.2 0 1 0 0-2.4 1.2 1.2 0 0 0 0 2.4Z"/>
  <path fill="#fff" d="M8.4 5.9a.7.7 0 1 0 0-1.4.7.7 0 0 0 0 1.4Z"/>
  <path fill="#E6E9EE" d="M5.3 10.3a1.2 1.2 0 1 0 0-2.3 1.2 1.2 0 0 0 0 2.3Z"/>
  <path fill="#fff" d="M5.3 9.8a.7.7 0 1 0 0-1.4.7.7 0 0 0 0 1.4Z"/>
</svg>
