<svg class="menu-svg" xmlns="http://www.w3.org/2000/svg" width="22" height="18" fill="none">
  <path fill="#000" d="M21.6 0H.4C.2 0 0 .2 0 .4v14c0 .2.2.4.4.4h7.8v2.3H6.6c-.2 0-.4.2-.4.5 0 .2.2.4.4.4h8.8c.2 0 .4-.2.4-.4 0-.3-.2-.5-.4-.5h-1.6v-2.3h7.8c.2 0 .4-.2.4-.4V.4c0-.2-.2-.4-.4-.4ZM13 17.1H9v-2.3h4v2.3Zm8-3.1H1V.9h20v13Z"/>
  <path fill="#000" d="M10.3 2H2.4c-.2 0-.4.1-.4.4V8c0 .2.2.4.4.4h7.9c.2 0 .4-.2.4-.4V2.4c0-.3-.2-.5-.4-.5ZM3.5 7.5l1.4-1.4 1.4 1.4H3.5Zm6.3 0H7.5l-.8-.8L8.4 5l1.4 1.4v1.1Zm0-2.3-1-1.1a.4.4 0 0 0-.7 0l-2 2-1-1a.4.4 0 0 0-.5 0L2.8 7V2.8h7v2.5Z"/>
  <path fill="#000" d="m20 2.7-.8-.8a1 1 0 0 0-1.5 0L12 7.6v.2l-.7 2H2.4c-.2 0-.4.3-.4.5 0 .3.2.5.4.5h9.4l2.3-.8h.2L20 4.1a1 1 0 0 0 0-1.5Zm-7.7 7 .3-1 .6.7-.9.2ZM14 9l-1-1 4.4-4.5 1 1L14 9Zm5.4-5.4-.3.3-1-1 .3-.4h.2l.8.8a.2.2 0 0 1 0 .3ZM17.7 12H2.4c-.2 0-.4.2-.4.4 0 .3.2.5.4.5h15.3c.2 0 .4-.2.4-.5 0-.2-.2-.4-.4-.4Zm2 0h-.3c-.2 0-.4.2-.4.4 0 .3.2.5.4.5h.3c.2 0 .4-.2.4-.5 0-.2-.2-.4-.4-.4Z"/>
</svg>
