<svg class="menu-svg" xmlns="http://www.w3.org/2000/svg" width="20" height="20" fill="none">
  <g fill="#000">
    <path d="M17 3A10 10 0 0 0 3 3a10 10 0 0 0-.7 13.4c-.3.6-.8 1.4-1.6 1.8A1 1 0 0 0 1 20h.8a6 6 0 0 0 3.5-1.2A10 10 0 0 0 17 17.1a10 10 0 0 0 0-14.2Zm-.7 13.3a8.9 8.9 0 0 1-10.8 1.3.6.6 0 0 0-.7.1 4.4 4.4 0 0 1-3 1.1c.8-.6 1.3-1.5 1.7-2.2v-.4l-.1-.3a8.9 8.9 0 1 1 12.9.4Z"/>
    <path d="M10 10.7a.7.7 0 1 0 0-1.4.7.7 0 0 0 0 1.4Zm3.6 0a.7.7 0 1 0 0-1.4.7.7 0 0 0 0 1.4Zm-7.2 0a.7.7 0 1 0 0-1.4.7.7 0 0 0 0 1.4Z"/>
  </g>
</svg>
