<svg class="menu-svg" xmlns="http://www.w3.org/2000/svg" width="19" height="16" fill="none">
  <g fill="#4353FF">
    <path d="M18.345 0H.655A.654.654 0 0 0 0 .653v10.449h19V.653A.654.654 0 0 0 18.345 0Zm-.328 10.122H.983V.98h17.034v9.142Z"/>
    <path d="M7.535 5.061c.09 0 .164.073.164.163h.491v-.49h-.655a.163.163 0 1 1 0-.326h.655V2.286H5.242v2.938H7.37c0-.09.073-.163.164-.163Z"/>
    <path d="M.983 10.122h17.034V.98H.983v9.143Zm7.207-.816h-.655a.163.163 0 1 1 0-.327h.655a.163.163 0 1 1 0 .327Zm-.655-1.633c.09 0 .163.073.163.164v.653a.163.163 0 0 1-.327 0v-.653c0-.09.073-.164.164-.164Zm-.164-.49v-.652a.163.163 0 0 1 .327 0v.653a.163.163 0 0 1-.327 0ZM9.5 9.307h-.656a.163.163 0 1 1 0-.327H9.5a.163.163 0 1 1 0 .327Zm2.784-.816a.163.163 0 0 1-.328 0v-.653a.163.163 0 0 1 .328 0v.653Zm0-1.306a.163.163 0 0 1-.328 0V6.53a.163.163 0 0 1 .328 0v.654Zm0-1.307a.163.163 0 0 1-.328 0v-.653a.163.163 0 0 1 .328 0v.653Zm1.474.327V1.959c0-.18.146-.326.327-.326h2.949c.18 0 .327.146.327.326v7.184c0 .18-.146.326-.327.326h-2.949a.327.327 0 0 1-.327-.326v-2.94Zm-2.293-1.796h.655a.163.163 0 1 1 0 .327h-.655a.163.163 0 1 1 0-.327Zm0 4.571h.655a.163.163 0 1 1 0 .327h-.655a.163.163 0 1 1 0-.327Zm-1.31-4.57h.654a.163.163 0 1 1 0 .326h-.655a.163.163 0 1 1 0-.327Zm0 4.57h.654a.163.163 0 1 1 0 .327h-.655a.163.163 0 1 1 0-.327Zm-5.57-7.02c0-.18.147-.326.328-.326h3.603c.181 0 .328.146.328.326v2.45H9.5a.163.163 0 1 1 0 .326h-.655v.816c0 .035-.006.07-.016.101l.86.768a.13.13 0 0 1-.036.218l-.325.142.29.66a.163.163 0 0 1-.15.23.164.164 0 0 1-.15-.098l-.29-.66-.326.142a.131.131 0 0 1-.185-.122l.014-1.055h-.833a.163.163 0 0 1-.327 0H4.914a.327.327 0 0 1-.328-.326V1.959Zm-2.948 0c0-.18.147-.326.328-.326h.982c.181 0 .328.146.328.326v7.184c0 .18-.147.326-.328.326h-.982a.327.327 0 0 1-.328-.326V1.959ZM0 12.408c0 .36.293.653.655.653h17.69a.654.654 0 0 0 .655-.653v-1.306H0v1.306Zm9.5-.816a.49.49 0 1 1 .002.981.49.49 0 0 1-.002-.981Zm-2.907 3.755h5.814l-.204-1.633H6.798l-.205 1.633Z"/>
    <path d="M6.552 15.347a.327.327 0 1 0 0 .653h5.896a.327.327 0 1 0 0-.653H6.552Zm.245-1.633h5.406l-.082-.653H6.879l-.082.653ZM9.5 12.571a.49.49 0 1 0 .002-.98.49.49 0 0 0-.002.98ZM1.965 9.47h.983a.328.328 0 0 0 .328-.327V1.959a.327.327 0 0 0-.328-.326h-.983a.327.327 0 0 0-.327.326v7.184c0 .18.146.326.327.326Zm.328-7.184h.327a.327.327 0 1 1 0 .653h-.327a.327.327 0 1 1 0-.653Zm0 .98h.327a.327.327 0 1 1 0 .652h-.327a.327.327 0 1 1 0-.653Zm0 .979h.327a.327.327 0 1 1 0 .653h-.327a.327.327 0 1 1 0-.653Zm0 .98h.327a.327.327 0 1 1 0 .653h-.327a.327.327 0 1 1 0-.654Zm0 .979h.327a.327.327 0 1 1 0 .653h-.327a.327.327 0 1 1 0-.653Zm-.328 1.633c0-.18.147-.327.328-.327h.327c.181 0 .328.146.328.327v.653c0 .18-.147.326-.328.326h-.327a.327.327 0 0 1-.328-.326v-.653Z"/>
    <path d="M2.293 2.939h.328a.327.327 0 1 0 0-.653h-.328a.327.327 0 1 0 0 .653Zm0 .979h.328a.327.327 0 1 0 0-.653h-.328a.327.327 0 1 0 0 .653Zm0 .98h.328a.327.327 0 1 0 0-.653h-.328a.327.327 0 1 0 0 .653Zm0 .979h.328a.327.327 0 1 0 0-.653h-.328a.327.327 0 1 0 0 .653Zm0 .98h.328a.327.327 0 1 0 0-.653h-.328a.327.327 0 1 0 0 .653Zm0 1.959h.328c.18 0 .327-.146.327-.326v-.653a.327.327 0 0 0-.327-.327h-.328a.327.327 0 0 0-.328.327v.653c0 .18.147.326.328.326ZM17.362 1.96a.327.327 0 0 0-.327-.327h-2.949a.327.327 0 0 0-.327.326v1.96h3.603v-1.96Zm-.491 1.632H14.25a.164.164 0 1 1 0-.327h2.621a.164.164 0 1 1 0 .327Zm0-.653H14.25a.164.164 0 1 1 0-.327h2.621a.164.164 0 1 1 0 .327Zm0-.653H14.25a.164.164 0 1 1 0-.327h2.621a.164.164 0 1 1 0 .327ZM14.086 9.47h2.949c.18 0 .327-.147.327-.327V6.204H13.76v2.939c0 .18.146.326.327.326Zm1.474-2.94h1.31a.164.164 0 1 1 0 .327h-1.31a.164.164 0 1 1 0-.326Zm0 .654h1.31a.164.164 0 1 1 0 .326h-1.31a.164.164 0 1 1 0-.326Zm0 .653h1.31a.164.164 0 1 1 0 .326h-1.31a.164.164 0 1 1 0-.326Zm0 .653h1.31a.164.164 0 1 1 0 .326h-1.31a.164.164 0 1 1 0-.326Zm-.655-1.96a.164.164 0 1 1 0 .328.164.164 0 0 1 0-.327Zm0 .654a.164.164 0 1 1 0 .327.164.164 0 0 1 0-.327Zm0 .653a.164.164 0 1 1 0 .327.164.164 0 0 1 0-.327Zm0 .653a.164.164 0 1 1 0 .327.164.164 0 0 1 0-.327Zm-.655-1.96a.164.164 0 1 1 0 .328.164.164 0 0 1 0-.327Zm0 .654a.164.164 0 1 1 0 .327.164.164 0 0 1 0-.327Zm0 .653a.164.164 0 1 1 0 .327.164.164 0 0 1 0-.327Zm0 .653a.164.164 0 1 1 0 .327.164.164 0 0 1 0-.327Z"/>
    <path d="M17.362 3.918H13.76v2.286h3.603V3.918Zm-2.784 1.96h-.328a.164.164 0 1 1 0-.327h.328a.164.164 0 1 1 0 .327Zm0-.653h-.328a.164.164 0 1 1 0-.327h.328a.164.164 0 1 1 0 .327Zm0-.653h-.328a.164.164 0 1 1 0-.327h.328a.164.164 0 1 1 0 .327Zm2.293 1.306h-1.638a.164.164 0 1 1 0-.327h1.638a.164.164 0 1 1 0 .327Zm0-.653h-1.638a.164.164 0 1 1 0-.327h1.638a.164.164 0 1 1 0 .327Zm0-.653h-1.638a.164.164 0 1 1 0-.327h1.638a.164.164 0 1 1 0 .327ZM16.87 1.96h-1.965a.164.164 0 1 1 0 .326h1.966a.164.164 0 1 0 0-.327Zm-2.456.163c0-.09.073-.164.164-.164h-.328a.164.164 0 1 0 0 .327h.328a.164.164 0 0 1-.164-.163Zm2.456 1.142h-1.31a.164.164 0 1 1 0 .327h1.31a.164.164 0 1 0 0-.327Zm-1.8.164c0-.09.072-.164.163-.164h-.983a.164.164 0 1 0 0 .327h.983a.164.164 0 0 1-.164-.163Z"/>
    <path d="M16.87 4.245h-1.637a.164.164 0 1 0 0 .326h1.638a.164.164 0 1 0 0-.326Zm-.818-1.469c0-.09.073-.164.164-.164H14.25a.164.164 0 1 0 0 .327h1.966a.164.164 0 0 1-.164-.163Zm.819-.164h-.327a.164.164 0 1 1 0 .327h.327a.164.164 0 1 0 0-.327Zm-1.801-.489a.164.164 0 0 0-.165-.164h-.327a.164.164 0 1 0 0 .327h.328c.09 0 .163-.073.163-.163Zm.655 1.306a.164.164 0 0 0-.164-.164h-.328a.164.164 0 1 0 0 .327h.328c.09 0 .164-.073.164-.163Zm-1.147.816h-.328a.164.164 0 1 0 0 .326h.328a.164.164 0 1 0 0-.326Zm2.292.653h-1.637a.164.164 0 1 0 0 .326h1.638a.164.164 0 1 0 0-.326Zm-2.292 0h-.328a.164.164 0 1 0 0 .326h.328a.164.164 0 1 0 0-.326Zm2.292.653h-1.637a.164.164 0 1 0 0 .327h1.638a.164.164 0 1 0 0-.327Zm-2.292 0h-.328a.164.164 0 1 0 0 .327h.328a.164.164 0 1 0 0-.327ZM14.25 7.51a.164.164 0 1 0 0-.327.164.164 0 0 0 0 .327Zm0-.653a.164.164 0 1 0 0-.327.164.164 0 0 0 0 .327Zm0 1.959a.164.164 0 1 0 0-.327.164.164 0 0 0 0 .327Zm0-.653a.164.164 0 1 0 0-.327.164.164 0 0 0 0 .327Zm.655-.653a.164.164 0 1 0 0-.327.164.164 0 0 0 0 .327Zm0-.653a.164.164 0 1 0 0-.327.164.164 0 0 0 0 .327Zm0 1.959a.164.164 0 1 0 0-.327.164.164 0 0 0 0 .327Zm0-.653a.164.164 0 1 0 0-.327.164.164 0 0 0 0 .327Zm.655-.653h1.31a.164.164 0 1 0 0-.326h-1.31a.164.164 0 1 0 0 .326Zm0-.653h1.31a.164.164 0 1 0 0-.326h-1.31a.164.164 0 1 0 0 .326Zm0 1.959h1.31a.164.164 0 1 0 0-.326h-1.31a.164.164 0 1 0 0 .326Zm0-.653h1.31a.164.164 0 1 0 0-.326h-1.31a.164.164 0 1 0 0 .326Z"/>
    <path d="M16.707 2.776a.164.164 0 0 0-.164-.164h-.327a.164.164 0 1 0 0 .327h.327c.09 0 .164-.073.164-.163ZM4.914 5.877h2.457v-.653H5.24V2.286h2.95v2.122a.163.163 0 1 1 0 .327v.49h-.492v.652h.833l.003-.196a.132.132 0 0 1 .22-.096l.075.067a.326.326 0 0 0 .016-.101v-.816a.163.163 0 1 1 0-.327V1.96a.327.327 0 0 0-.328-.326H4.914a.327.327 0 0 0-.328.326v3.592c0 .18.147.326.328.326Zm2.62 1.47a.163.163 0 0 0 .164-.163V6.53a.163.163 0 0 0-.327 0v.653c0 .09.073.163.163.163Zm3.932 1.959h.655a.163.163 0 1 0 0-.326h-.655a.163.163 0 1 0 0 .326Zm.654-1.632a.163.163 0 0 0-.163.163v.653a.163.163 0 0 0 .328 0v-.653a.163.163 0 0 0-.164-.163Zm-.654-2.939h.655a.163.163 0 1 0 0-.327h-.655a.163.163 0 1 0 0 .327Zm.654.326a.163.163 0 0 0-.163.164v.653a.163.163 0 0 0 .328 0v-.653a.163.163 0 0 0-.164-.164ZM9.5 8.98h-.655a.163.163 0 1 0 0 .326H9.5a.163.163 0 1 0 0-.326Z"/>
    <path d="M7.534 5.061a.163.163 0 0 0-.163.164v.653a.163.163 0 0 0 .327 0v-.653a.163.163 0 0 0-.164-.164ZM8.19 8.98h-.656a.163.163 0 1 0 0 .326h.656a.163.163 0 1 0 0-.326Zm-.82-.49a.163.163 0 0 0 .328 0v-.653a.163.163 0 0 0-.327 0v.653Zm4.75-2.123a.163.163 0 0 0-.163.164v.653a.163.163 0 0 0 .328 0V6.53a.163.163 0 0 0-.164-.164Zm-1.965-1.632h.655a.163.163 0 1 0 0-.327h-.655a.163.163 0 1 0 0 .327Zm-2.783-.164c0 .09.073.164.163.164h.656a.163.163 0 1 0 0-.327h-.656a.163.163 0 0 0-.163.163Zm2.783 4.735h.655a.163.163 0 1 0 0-.326h-.655a.163.163 0 1 0 0 .326ZM8.681 4.571c0 .09.073.164.164.164H9.5a.163.163 0 1 0 0-.327h-.655a.163.163 0 0 0-.164.163ZM8.533 5.68l-.002.197-.014 1.055a.131.131 0 0 0 .184.122l.326-.143.291.661a.164.164 0 0 0 .3-.131l-.29-.66.325-.143a.13.13 0 0 0 .035-.218l-.86-.768-.075-.067a.131.131 0 0 0-.22.096Z"/>
  </g>
</svg>
