<svg class="menu-svg" xmlns="http://www.w3.org/2000/svg" width="20" height="21" fill="none">
  <g fill="#000">
    <path d="M2.8 4.4c.3.2.6.1.8-.1a8 8 0 0 1 12.8 0 .5.5 0 0 0 .8 0c.2-.1.2-.4 0-.7a9 9 0 0 0-14.5 0c-.1.3-.1.6.1.8Zm12.8 2.8c0 1 .7 1.6 1.6 1.6 1 0 1.7-.7 1.7-1.6 0-1-.8-1.7-1.7-1.7-.9 0-1.6.8-1.6 1.7Zm3.3 2.2a536.5 536.5 0 0 0-.9 0l-.8.6-.8-.7a.5.5 0 0 0-.4 0l-.5.1c-.6.2-1 .8-1 1.6v2.7l.8 1.3v3.3c0 .3.3.5.5.5h2.8c.3 0 .5-.2.5-.5V15l.8-1.3.1-.3V11c0-.8-.4-1.4-1.1-1.6ZM2.8 8.8c.9 0 1.6-.7 1.6-1.6 0-1-.7-1.7-1.6-1.7-1 0-1.7.8-1.7 1.7 0 1 .8 1.6 1.7 1.6Zm1.7.6a670.8 670.8 0 0 0-.9 0l-.8.6-.8-.7a.5.5 0 0 0-.5 0l-.4.1C.4 9.6 0 10.2 0 11v2.7L1 15v3.3c0 .3.1.5.4.5h2.8c.2 0 .5-.2.5-.5V15l.8-1.3V11c0-.8-.4-1.4-1-1.6Z"/>
    <path d="M12.1 4.9c0-1.2-1-2.2-2.1-2.2-1.2 0-2.1 1-2.1 2.2C7.9 6 8.9 7 10 7c1.2 0 2.1-1 2.1-2.1Zm.2 3.1-.6-.2s-.2 0-.2.2l-1.3 3.5c0 .2-.3.2-.4 0L8.5 8c0-.1 0-.2-.2-.2l-.6.2a2 2 0 0 0-1.3 1.8v3.8l1.4 2v5.2l.1.2h4.2l.1-.2v-5.1l1.4-2v-4a2 2 0 0 0-1.3-1.8Z"/>
    <path d="m10.5 8-.2-.1h-.8v.4l.3.4-.2 1.3.3.7c0 .1.2.1.2 0l.3-.7-.2-1.3.3-.4V8Z"/>
  </g>
</svg>
