<svg class="menu-svg" xmlns="http://www.w3.org/2000/svg" width="19" height="19" fill="none">
  <g fill="#fff">
    <path d="M18 7.4h-1.8a.7.7 0 0 1-.6-.4c-.1-.3 0-.6.2-.8L17 5a1 1 0 0 0 0-1.4L15.4 2A1 1 0 0 0 14 2l-1.2 1.2c-.2.2-.5.3-.8.2a.7.7 0 0 1-.4-.6V1c0-.6-.4-1-1-1H8.4a1 1 0 0 0-1 1v1.8c0 .2-.2.5-.4.6-.3.1-.6 0-.8-.2L5 2a1 1 0 0 0-1.4 0L2 3.6A1 1 0 0 0 2 5l1.2 1.2c.2.2.3.5.2.8-.1.2-.4.4-.6.4H1a1 1 0 0 0-1 1v2.2c0 .6.4 1 1 1h1.8c.2 0 .5.2.6.4.1.3 0 .6-.2.8L2 14a1 1 0 0 0 0 1.4L3.6 17c.4.4 1 .4 1.4 0l1.2-1.2c.2-.2.5-.3.8-.2.2.1.4.4.4.6V18c0 .6.4 1 1 1h2.2c.6 0 1-.4 1-1v-1.8c0-.2.2-.5.4-.6.3-.1.6 0 .8.2L14 17c.4.4 1 .4 1.4 0l1.6-1.6a1 1 0 0 0 0-1.4l-1.2-1.2a.7.7 0 0 1-.2-.8c.1-.2.4-.4.6-.4H18c.6 0 1-.4 1-1V8.4c0-.6-.4-1-1-1Zm.3 3.2c0 .2-.1.3-.3.3h-1.8c-.5 0-1 .3-1.2.9-.3.5-.1 1 .3 1.5l1.2 1.2c.1.1.1.3 0 .4L15 16.5c0 .1-.3.1-.4 0l-1.2-1.2c-.4-.4-1-.6-1.5-.3-.6.2-.9.7-.9 1.2V18c0 .2-.1.3-.3.3H8.4A.3.3 0 0 1 8 18v-1.8c0-.5-.3-1-.9-1.2l-.5-.1c-.4 0-.7 0-1 .4l-1.2 1.2c-.1.1-.3.1-.4 0L2.5 15a.3.3 0 0 1 0-.4l1.2-1.2c.4-.4.6-1 .3-1.5-.2-.6-.7-.9-1.2-.9H1a.3.3 0 0 1-.3-.3V8.4c0-.2.1-.3.3-.3h1.8c.5 0 1-.3 1.2-.9.3-.5.1-1-.3-1.5L2.5 4.5a.3.3 0 0 1 0-.4L4 2.5c0-.1.3-.1.4 0l1.2 1.2c.4.4 1 .6 1.5.3.6-.2.9-.7.9-1.2V1c0-.2.1-.3.3-.3h2.2c.2 0 .3.1.3.3v1.8c0 .5.3 1 .9 1.2.5.3 1 .1 1.5-.3l1.2-1.2c.1-.1.3-.1.4 0L16.5 4c.1 0 .1.3 0 .4l-1.2 1.2c-.4.4-.6 1-.3 1.5.2.6.7.9 1.2.9H18c.2 0 .3.1.3.3v2.2Z"/>
    <path d="M9.5 6.3a3.2 3.2 0 1 0 0 6.4 3.2 3.2 0 0 0 0-6.4Zm0 5.7a2.5 2.5 0 1 1 0-5 2.5 2.5 0 0 1 0 5Z"/>
  </g>
</svg>
