<svg xmlns="http://www.w3.org/2000/svg" width="102" height="26" fill="none">
  <path fill="#4353FF" d="M33 10.2c0-1.9-1.8-3.9-5-3.9-3.4 0-7.2 2.6-7.8 7.7-.6 5.2 2.6 7.5 5.8 7.5a8 8 0 0 0 6.6-3 2.9 2.9 0 0 0-3.7-.7c-.4.2-1 .4-2 .4-1.2 0-2.5-.5-2.5-2.9 8-.8 8.5-3.3 8.5-5.1Zm-4 .3c0 .5-.3 1.5-4.3 2 .9-3 2.5-3.2 3.2-3.2a1 1 0 0 1 1.1 1.2Zm-13.4.5-1.9 5.8-1.3-10.1c-2.9 0-4.4 2-5.2 4.3l-2.3 5.9-.3-5.9A4.8 4.8 0 0 0 0 6.7l2.4 14.7c3 0 4.7-2 5.5-4.3l2-5 1.3 9.3c3 0 4.6-2 5.5-4L21 6.6c-3 0-4.6 2-5.4 4.3ZM44 6.3c-1.8 0-3.3 1-4.5 2.6L40.7 0c-2.5 0-4.5 2.2-5 5.5L34 21.3c1.4 0 3-.4 3.8-1.5a4 4 0 0 0 3.4 1.7c4.2 0 7.1-5 7.1-9.6 0-4.2-2-5.6-4-5.6Zm-.3 7.6c-.5 2.6-2 4.4-3.3 4.4-1.4 0-2-.6-2-.6.3-2.3.5-3.7 1-5 .5-1.1 1.7-3 3-3 1.1 0 1.7 1.6 1.3 4.2Zm15-7.2h-3v-.2c.2-2 .7-3 2.2-3.1 1-.1 1.5-.7 1.6-1.3l.3-2c-5.9 0-7.7 2.5-8.2 6.5-1 0-2 1.2-2.3 2.6v.5h2l-1.7 13.8-.5 2.5h.2c2.7-.1 4.5-2.3 4.9-5.5l1.3-10.8h1c.8 0 1.9-1 2-2.5l.2-.5ZM74 6.4a8 8 0 0 0-7.5 6.5c-1 4 .5 8.7 5.5 8.7s7.8-4.9 7.8-9c0-4-2.7-6.2-5.8-6.2Zm1.4 7.4c-.2 1.8-1 4.5-3 4.5-2.2 0-2-3.2-1.7-4.7.2-1.6 1.1-4 3-4 1.8 0 2 2.2 1.7 4.2ZM96.6 11l-1.8 5.8-1.3-10.1c-3 0-4.5 2-5.3 4.3l-2.3 5.9-.3-5.9A4.8 4.8 0 0 0 81 6.7l2.4 14.7c3 0 4.7-2 5.5-4.3l2-5 1.2 9.3c3.1 0 4.7-2 5.6-4L102 6.6c-3 0-4.6 2-5.4 4.3Zm-35-11L59 20.4l-.5 2.5h.2c2.6 0 4.5-2.4 4.9-5.4L65 5.8c.4-3.5-1.7-5.7-3.6-5.7Z"/>
</svg>
