<svg xmlns="http://www.w3.org/2000/svg" width="13" height="19" fill="none">
  <path fill="#FFF" d="M11.3 9.5C11.7 6 10 2.6 6.9 0a.7.7 0 0 0-.8 0C3 2.6 1.3 6.1 1.7 9.5A4.4 4.4 0 0 0 0 12.9c0 1.2.6 2.5 1.8 3.4.3.2 1 .1.9-.4l-.2-.8c0-.6.3-1.2.8-1.7h6.4c.5.5.8 1.1.8 1.7l-.2.8c0 .6.7.6 1 .4 1-1 1.7-2.2 1.7-3.4 0-1.3-.6-2.5-1.7-3.4ZM6.5 1c1 .8 1.7 1.6 2.3 2.6H4.2A11 11 0 0 1 6.5 1Zm-5 13.6a3.4 3.4 0 0 1 .4-4l.8 2c-.6.6-1 1.3-1.2 2Zm7.6-2H4a8.6 8.6 0 0 1-.2-8.2h5.6a8.6 8.6 0 0 1-.2 8.2Zm1.2 0 .8-2c.5.6.8 1.4.8 2.3 0 .6-.1 1.2-.4 1.7-.2-.7-.6-1.4-1.2-2Z"/>
  <path fill="#FFF" d="M4.4 14.1c-.3 0-.6.2-.6.4v2c0 .3.3.5.6.5s.5-.2.5-.4v-2c0-.3-.2-.5-.5-.5Zm2.1 0c-.1 0-.3 0-.4.2l-.1.1v4.2c0 .3.2.4.5.4.2 0 .4-.1.5-.3v-4.3c0-.1-.3-.3-.5-.3Zm2.1 0c-.3 0-.5.2-.5.4v2c0 .3.2.5.5.5s.5-.2.5-.4v-2c0-.3-.2-.5-.5-.5Z"/>
</svg>
