<svg xmlns="http://www.w3.org/2000/svg" width="19" height="19" fill="none">
  <path fill="#000" d="M9.5 4.74a4.76 4.76 0 1 0 .01 9.53 4.76 4.76 0 0 0-.01-9.53Zm0-1.4a.93.93 0 0 1-.93-.93V.93a.93.93 0 1 1 1.86 0V2.4c0 .52-.42.93-.93.93Zm0 12.32a.93.93 0 0 0-.93.93v1.48a.93.93 0 1 0 1.86 0V16.6a.93.93 0 0 0-.93-.93Zm4.35-10.51a.93.93 0 0 1 0-1.32l1.05-1.05a.93.93 0 0 1 1.32 1.32l-1.05 1.05a.93.93 0 0 1-1.32 0Zm-8.7 8.7a.93.93 0 0 0-1.32 0L2.78 14.9a.93.93 0 0 0 1.32 1.32l1.05-1.05a.93.93 0 0 0 0-1.32ZM15.66 9.5c0-.51.41-.93.93-.93h1.48a.93.93 0 1 1 0 1.86H16.6a.93.93 0 0 1-.93-.93Zm-12.32 0a.93.93 0 0 0-.93-.93H.93a.93.93 0 1 0 0 1.86H2.4c.52 0 .93-.42.93-.93Zm10.51 4.35a.93.93 0 0 1 1.32 0l1.05 1.05a.93.93 0 1 1-1.32 1.32l-1.05-1.05a.93.93 0 0 1 0-1.32Zm-8.7-8.7a.93.93 0 0 0 0-1.32L4.1 2.78A.93.93 0 0 0 2.78 4.1l1.05 1.05c.37.36.95.36 1.32 0Z"/>
</svg>
